<svg xmlns="http://www.w3.org/2000/svg" width="21" height="21" viewBox="0 0 21 21"><defs><style>.a{fill:none;}.b{fill:#999;fill-rule:evenodd;}</style></defs><g transform="translate(0)"><rect class="a" width="21" height="21"/><path class="b" d="M44.639,19.006A12.122,12.122,0,0,0,56.87,6.776V6.193a9.468,9.468,0,0,0,2.1-2.213,9.67,9.67,0,0,1-2.446.7,4.532,4.532,0,0,0,1.864-2.33A10.684,10.684,0,0,1,55.705,3.4,4.16,4.16,0,0,0,52.56,2a4.376,4.376,0,0,0-4.31,4.31,2.271,2.271,0,0,0,.116.932A12.043,12.043,0,0,1,39.514,2.7a4.461,4.461,0,0,0-.582,2.213A4.628,4.628,0,0,0,40.8,8.523a3.927,3.927,0,0,1-1.98-.582h0a4.257,4.257,0,0,0,3.494,4.193,3.591,3.591,0,0,1-1.165.116,1.982,1.982,0,0,1-.815-.116,4.413,4.413,0,0,0,4.077,3.029,8.8,8.8,0,0,1-5.358,1.864A3.225,3.225,0,0,1,38,16.91a11,11,0,0,0,6.639,2.1" transform="translate(-38 0.621)"/></g></svg>